<?xml version="1.0" encoding="UTF-8" standalone="no"?>
<!DOCTYPE svg PUBLIC "-//W3C//DTD SVG 1.1//EN" "http://www.w3.org/Graphics/SVG/1.1/DTD/svg11.dtd">
<svg width="100%" height="100%" viewBox="0 0 699 110" version="1.1" xmlns="http://www.w3.org/2000/svg" xmlns:xlink="http://www.w3.org/1999/xlink" xml:space="preserve" style="fill-rule:evenodd;clip-rule:evenodd;stroke-linejoin:round;stroke-miterlimit:1.41421;">
    <g id="brown">
        <path d="M184.343,109.318C183.155,109.749 181.961,109.857 180.771,109.649C179.794,109.537 178.761,109.156 177.683,108.507C176.593,107.854 175.624,106.774 174.754,105.256C173.348,102.873 171.936,100.164 170.53,97.124C169.334,94.528 167.949,91.362 166.387,87.622C164.809,83.883 163.263,79.571 161.749,74.696C156.763,74.37 152.129,74.049 147.855,73.724C143.572,73.4 139.641,73.29 136.068,73.4C133.364,79.571 130.625,85.318 127.861,90.626C125.094,95.938 122.469,99.948 119.976,102.654C118.564,104.823 116.617,106.504 114.123,107.69C111.954,108.776 109.191,109.508 105.838,109.886C102.481,110.265 98.361,109.699 93.48,108.179C90.882,107.317 88.608,105.907 86.655,103.95C84.919,102.224 83.371,99.84 82.025,96.805C80.667,93.771 80.101,89.817 80.316,84.936C80.64,80.711 82.127,77.14 84.783,74.209C87.437,71.285 90.77,68.922 94.782,67.143C98.788,65.349 103.342,64.001 108.438,63.075C113.536,62.156 118.68,61.53 123.879,61.209C125.067,58.279 126.255,55.055 127.453,51.532C128.649,48.015 129.952,44.198 131.347,40.074C132.763,36.174 134.119,32.546 135.417,29.183C136.613,26.365 137.83,23.636 139.076,20.978C140.321,18.324 141.434,16.454 142.406,15.372C143.163,14.505 144.196,13.717 145.498,13.014C146.794,12.314 148.177,11.791 149.64,11.47C151.108,11.142 152.616,11.039 154.192,11.142C155.761,11.256 157.25,11.629 158.662,12.281C160.068,12.931 161.237,13.609 162.16,14.315C163.08,15.022 163.841,15.857 164.436,16.834C165.033,17.808 165.516,18.919 165.896,20.163C166.273,21.41 166.678,22.842 167.115,24.47C167.768,28.48 168.577,32.652 169.555,36.985C170.418,40.781 171.395,45.009 172.483,49.668C173.561,54.325 174.865,59.09 176.379,63.97C179.197,64.188 181.067,64.375 181.99,64.538C182.908,64.702 183.59,64.893 184.013,65.109C184.776,65.538 185.375,66.083 185.811,66.73C186.236,67.277 186.622,67.98 186.945,68.853C187.271,69.716 187.322,70.69 187.109,71.773C186.889,72.743 186.562,73.616 186.138,74.37C185.699,75.021 185.1,75.588 184.343,76.081C183.59,76.564 182.502,76.757 181.098,76.647L180.771,76.647C181.308,77.951 181.826,79.222 182.317,80.468C182.804,81.717 183.315,82.934 183.86,84.126C184.94,86.295 185.913,88.353 186.785,90.303C187.544,91.924 188.27,93.554 188.975,95.177C189.684,96.805 190.14,97.887 190.362,98.428C190.793,100.05 190.849,101.522 190.518,102.818C190.302,104.01 189.763,105.198 188.898,106.398C188.027,107.586 186.508,108.565 184.343,109.318ZM371.086,94.753C370.823,95.368 370.449,96.025 369.965,96.721C369.092,97.971 367.578,99.402 365.407,101.029C362.702,102.873 359.988,104.394 357.28,105.581C354.897,106.663 352.382,107.505 349.73,108.104C347.068,108.697 344.603,108.666 342.328,108.017C340.485,107.478 339.084,106.663 338.103,105.581C337.126,104.502 336.421,103.256 335.99,101.844C334.153,103.256 331.955,104.712 329.409,106.23C326.863,107.749 324.292,108.776 321.69,109.319C319.952,109.648 318.09,109.725 316.073,109.563C314.072,109.396 312.179,108.859 310.392,107.94C308.601,107.021 307.058,105.688 305.762,103.951C304.458,102.224 303.703,99.891 303.485,96.966C303.158,93.173 303.535,89.433 304.62,85.75C305.486,82.607 307.108,79.221 309.496,75.587C311.879,71.962 315.563,68.684 320.55,65.755C324.234,63.592 328.188,61.913 332.413,60.72C336.643,59.532 340.162,58.716 342.98,58.28L343.305,58.114C345.905,48.147 348.157,40.32 350.052,34.631C351.947,28.944 353.49,24.695 354.69,21.871C356.088,18.516 357.28,16.346 358.254,15.371C360.425,13.53 362.268,12.448 363.792,12.122C365.306,11.79 366.494,11.736 367.369,11.958C368.443,12.282 369.252,12.931 369.799,13.905C370.013,15.529 369.932,17.671 369.556,20.324C369.173,22.983 368.607,25.881 367.848,29.024C367.087,32.168 366.195,35.363 365.169,38.614C364.134,41.865 363.141,44.925 362.159,47.797C361.184,50.669 360.315,53.184 359.561,55.352C358.8,57.523 358.254,58.987 357.933,59.746C358.692,59.964 359.641,60.337 360.784,60.884C361.914,61.428 362.865,61.965 363.624,62.506C364.924,63.478 365.681,64.65 365.899,66.003C366.119,67.362 365.681,68.684 364.601,69.984C363.846,70.851 362.673,71.502 361.105,71.936C359.534,72.369 357.174,72.315 354.037,71.772C353.923,72.205 353.817,72.584 353.713,72.914C353.6,73.236 353.49,73.505 353.378,73.725C352.837,75.668 352.326,77.756 351.839,79.982C351.352,82.201 350.946,84.312 350.62,86.319C350.295,88.326 350.106,90.14 350.052,91.761C349.994,93.391 350.185,94.527 350.62,95.178C351.487,96.59 352.866,97.237 354.765,97.125C356.662,97.021 359.019,95.937 361.837,93.88C364.543,91.821 366.469,90.575 367.605,90.14C368.741,89.711 369.635,89.651 370.29,89.982C370.612,90.196 370.943,90.575 371.265,91.114C371.277,91.134 371.289,91.154 371.3,91.174C371.451,89.668 371.681,88.13 371.99,86.56C372.697,82.985 373.808,79.143 375.324,75.021C375.436,74.59 375.815,73.534 376.464,71.851C377.117,70.173 377.895,68.276 378.819,66.164C379.74,64.047 380.742,61.996 381.83,59.989C382.906,57.982 383.997,56.493 385.075,55.517C385.508,55.087 386.051,54.706 386.705,54.378C387.246,54.163 387.924,53.972 388.734,53.81C389.547,53.648 390.551,53.677 391.743,53.895C392.494,53.999 393.261,54.244 394.02,54.629C394.78,55.004 395.344,55.598 395.728,56.412C396.105,57.223 396.188,58.227 395.971,59.415C395.757,60.609 395.096,62.075 394.02,63.81C391.521,68.469 389.466,72.914 387.839,77.138C386.433,80.82 385.293,84.53 384.428,88.27C383.565,92.008 383.667,95.073 384.756,97.453C385.402,98.428 386.379,98.809 387.677,98.591C388.871,98.374 390.491,97.671 392.56,96.479C394.613,95.287 397.372,92.96 400.841,89.489C400.949,86.56 401.332,83.367 401.984,79.902C402.632,76.431 403.391,73.124 404.256,69.983C405.23,66.406 406.263,62.83 407.351,59.253C408.214,57.084 409.431,55.571 411.011,54.706C412.572,53.841 414.88,53.408 417.911,53.408C419.433,53.408 420.542,53.731 421.247,54.378C421.95,55.031 422.408,55.817 422.622,56.736C422.842,57.658 422.869,58.554 422.705,59.415C422.543,60.285 422.408,60.99 422.299,61.53C422.197,61.857 421.921,62.917 421.49,64.7C421.055,66.491 420.565,68.546 420.024,70.88C419.481,73.209 418.888,75.618 418.237,78.11C417.588,80.605 416.989,82.662 416.45,84.285C415.902,86.018 415.579,87.729 415.471,89.404C415.363,91.088 415.336,92.577 415.398,93.879C415.442,95.177 415.61,96.265 415.881,97.124C416.149,97.999 416.396,98.486 416.611,98.591C416.937,98.699 417.428,98.618 418.073,98.347C418.724,98.079 419.379,97.754 420.024,97.368C420.675,96.991 421.355,96.616 422.056,96.236C422.759,95.851 423.383,95.556 423.926,95.342C425.011,95.013 426.093,94.828 427.182,94.77C428.262,94.716 429.286,95.177 430.263,96.153C431.241,97.124 431.511,98.268 431.077,99.564C430.854,100.219 430.594,100.866 430.263,101.521C430.157,101.733 429.51,102.467 428.314,103.713C427.126,104.955 424.579,106.34 420.675,107.855C416.661,109.375 413.789,110.074 412.058,109.972C410.323,109.858 408.861,109.375 407.669,108.507C405.828,107.206 404.204,104.553 402.798,100.543C401.6,101.521 400.223,102.518 398.652,103.549C397.074,104.579 395.419,105.554 393.69,106.475C391.961,107.393 390.167,108.129 388.33,108.666C386.485,109.211 384.698,109.427 382.962,109.319C381.119,109.319 379.468,109.156 378.011,108.832C376.543,108.507 375.324,107.884 374.351,106.962C373.377,106.043 372.589,104.77 371.99,103.141C371.401,101.521 371.102,99.402 371.102,96.806C371.079,96.129 371.074,95.444 371.086,94.753ZM635.454,103.404C633.699,104.393 631.943,105.281 630.187,106.069C627.475,107.263 624.58,108.261 621.491,109.076C618.399,109.888 615.559,109.915 612.957,109.156C610.357,108.394 608.461,107.207 607.267,105.582C606.079,103.952 605.339,102.113 605.076,100.05C604.796,98 604.796,95.91 605.076,93.793C605.339,91.686 605.642,89.816 605.971,88.188C606.179,86.78 606.504,85.02 606.94,82.911C607.371,80.792 607.812,78.707 608.244,76.646C608.671,74.589 609.083,72.721 609.461,71.043C609.844,69.362 610.135,68.14 610.357,67.378C608.405,69.121 606.614,70.367 604.997,71.12C603.369,71.883 601.957,71.773 600.765,70.795C599.898,70.145 599.467,69.333 599.467,68.36C599.467,67.378 599.575,66.467 599.79,65.594C600.112,64.512 600.603,63.432 601.252,62.343C602.011,60.936 603.147,59.555 604.669,58.199C606.179,56.843 607.812,55.541 609.54,54.296C611.277,53.052 613.013,51.891 614.742,50.803C616.477,49.723 617.999,48.854 619.299,48.201C621.787,46.573 624.254,45.632 626.689,45.358C629.131,45.088 630.779,45.928 631.648,47.877C631.86,48.423 631.752,49.584 631.325,51.377C630.889,53.154 630.317,55.171 629.62,57.388C628.909,59.608 628.181,61.835 627.427,64.048C626.662,66.274 626.123,68.085 625.797,69.499C625.15,71.659 624.522,74.023 623.931,76.565C623.326,79.115 622.843,81.58 622.471,83.963C622.084,86.349 621.87,88.462 621.82,90.303C621.758,92.144 622.001,93.446 622.546,94.205C623.523,95.827 625.121,96.588 627.344,96.478C627.674,96.462 628.013,96.421 628.363,96.355C628.424,96.229 628.49,96.106 628.562,95.987C628.886,95.45 629.317,94.909 629.858,94.365C630.835,93.606 632.218,92.495 634.001,91.033C635.792,89.567 637.689,88.002 639.694,86.32C641.695,84.641 643.681,82.91 645.624,81.12C647.575,79.331 649.253,77.681 650.661,76.159C651.963,74.643 653.594,72.829 655.539,70.716C657.49,68.601 659.387,66.517 661.229,64.456C663.288,62.074 665.454,59.634 667.727,57.144C669.141,55.41 670.468,54.324 671.712,53.893C672.956,53.461 674.119,53.353 675.209,53.569C676.4,53.787 677.536,54.324 678.624,55.19C679.379,56.169 679.972,57.307 680.407,58.605L680.407,59.91C680.519,61.208 680.654,63.295 680.812,66.163C680.976,69.032 681.028,72.176 680.976,75.587C680.926,79.008 680.737,82.476 680.407,85.995C680.084,89.516 679.541,92.632 678.784,95.34C682.574,93.499 685.614,92.143 687.884,91.274C690.161,90.411 691.919,89.843 693.169,89.567C694.411,89.296 695.28,89.269 695.774,89.489C696.259,89.71 696.671,89.98 696.993,90.303C698.293,91.821 698.697,93.096 698.206,94.125C697.72,95.151 696.23,96.588 693.739,98.429C692.112,99.621 690.132,100.758 687.805,101.844C685.465,102.928 683.064,103.903 680.575,104.768C678.079,105.636 675.666,106.42 673.335,107.123C671.003,107.83 669.035,108.394 667.407,108.833C666.215,109.267 665.131,109.536 664.15,109.648C664.044,109.648 663.939,109.698 663.831,109.81L663.831,109.648C660.582,110.187 656.727,109.914 652.292,108.833C647.847,107.637 644.952,106.175 643.598,104.448C642.24,102.713 641.564,101.139 641.564,99.725C640.698,100.268 639.933,100.758 639.282,101.189C638.641,101.624 638.09,101.95 637.66,102.168C637.119,102.493 636.686,102.763 636.358,102.978C636.09,103.157 635.789,103.299 635.454,103.404ZM231.16,102.593C228.938,103.914 226.714,105.072 224.49,106.069C221.782,107.263 218.881,108.261 215.796,109.076C212.706,109.888 209.862,109.915 207.266,109.156C204.662,108.394 202.765,107.207 201.568,105.582C200.38,103.952 199.65,102.113 199.383,100.05C199.105,98 199.105,95.91 199.383,93.793C199.65,91.686 199.949,89.816 200.274,88.188C200.492,86.78 200.818,85.02 201.247,82.911C201.676,80.792 202.115,78.707 202.551,76.646C202.98,74.589 203.389,72.721 203.768,71.043C204.147,69.362 204.442,68.14 204.662,67.378C202.711,69.121 200.921,70.367 199.3,71.12C197.674,71.883 196.262,71.773 195.07,70.795C194.205,70.145 193.77,69.333 193.77,68.36C193.77,67.378 193.874,66.467 194.096,65.594C194.419,64.512 194.91,63.432 195.561,62.343C196.318,60.936 197.457,59.555 198.97,58.199C200.492,56.843 202.115,55.541 203.853,54.296C205.584,53.052 207.313,51.891 209.049,50.803C210.784,49.723 212.304,48.854 213.608,48.201C216.098,46.573 218.56,45.632 220.994,45.358C223.438,45.088 225.083,45.928 225.957,47.877C226.173,48.423 226.065,49.584 225.632,51.377C225.199,53.154 224.626,55.171 223.921,57.388C223.214,59.608 222.489,61.835 221.728,64.048C220.965,66.274 220.428,68.085 220.104,69.499C219.451,71.659 218.829,74.023 218.238,76.565C217.633,79.115 217.15,81.58 216.77,83.963C216.389,86.349 216.171,88.462 216.119,90.303C216.063,92.144 216.308,93.446 216.853,94.205C217.824,95.827 219.428,96.588 221.647,96.478C223.866,96.37 226.546,95.128 229.692,92.743C230.642,92.022 231.51,91.385 232.296,90.832C232.567,89.279 232.892,87.64 233.27,85.913C234.025,82.445 235.111,78.762 236.525,74.858C235.221,75.509 234.133,75.861 233.27,75.917C232.395,75.973 231.694,75.917 231.159,75.752C230.612,75.588 230.206,75.343 229.928,75.02C229.671,74.698 229.474,74.425 229.37,74.209C229.258,74.103 229.067,73.724 228.798,73.071C228.528,72.422 228.421,71.659 228.472,70.794C228.528,69.934 228.875,68.922 229.528,67.79C230.179,66.653 231.319,65.434 232.943,64.132C237.599,60.556 241.692,58.036 245.211,56.571C248.73,55.115 250.931,54.215 251.796,53.894L251.956,53.894C252.064,53.894 252.173,53.84 252.279,53.73L252.279,53.894C253.368,53.678 254.021,53.57 254.232,53.57C254.56,53.57 254.775,53.622 254.883,53.73C257.378,53.944 258.889,54.572 259.437,55.598C259.976,56.627 259.976,58.063 259.437,59.909C260.519,59.473 261.819,58.926 263.337,58.279C264.856,57.634 266.345,57.085 267.809,56.656C269.269,56.226 270.649,55.924 271.949,55.76C273.252,55.598 274.23,55.681 274.877,56.004C276.826,56.983 277.908,58.555 278.13,60.719C278.344,62.89 277.968,64.617 276.99,65.92C276.561,66.568 275.497,67.168 273.826,67.709C272.142,68.252 270.137,68.874 267.809,69.579C265.478,70.284 262.955,71.205 260.251,72.337C257.541,73.477 254.883,74.916 252.279,76.647C251.421,79.03 250.656,81.416 250.009,83.8C249.354,86.183 248.73,88.432 248.137,90.543C247.546,92.66 247.056,94.528 246.679,96.152C246.297,97.783 246.057,98.916 245.949,99.565C245.076,103.038 243.805,105.66 242.128,107.452C240.442,109.239 238.522,110.023 236.36,109.809C234.294,109.591 232.997,109.156 232.459,108.507C231.912,107.854 231.529,106.936 231.319,105.741C231.219,105.243 231.167,104.194 231.16,102.593ZM9.941,109.648C9.394,109.648 8.881,109.671 8.398,109.725C7.905,109.781 7.389,109.75 6.852,109.648C5.549,108.993 4.361,108.074 3.271,106.882C2.406,105.907 1.618,104.634 0.917,103.061C0.212,101.491 -0.088,99.565 0.022,97.292C1.1,88.298 2.464,79.246 4.084,70.145C5.493,62.343 7.254,54.054 9.367,45.279C11.481,36.501 13.999,28.429 16.93,21.058C17.795,18.999 18.819,17.158 20.014,15.528C21.096,14.122 22.421,12.905 23.997,11.873C25.568,10.848 27.492,10.442 29.769,10.653C31.069,10.983 32.203,11.578 33.178,12.447C34.048,13.204 34.776,14.286 35.377,15.692C35.972,17.104 36.109,18.947 35.778,21.219C33.829,28.377 31.882,35.908 29.931,43.815C28.309,50.639 26.597,58.279 24.807,66.729C23.024,75.184 21.527,83.747 20.337,92.416C22.07,91.981 24.326,91.468 27.084,90.867C29.848,90.278 32.721,89.71 35.703,89.165C38.678,88.624 41.685,88.161 44.722,87.784C47.753,87.402 50.515,87.268 53.014,87.377C54.853,87.487 56.534,87.755 58.05,88.188C59.354,88.624 60.571,89.27 61.705,90.141C62.844,91.008 63.52,92.2 63.735,93.718C63.951,94.91 63.845,96.046 63.414,97.125C62.978,98 62.247,98.864 61.22,99.725C60.192,100.598 58.587,101.298 56.424,101.844C50.252,102.818 44.397,103.739 38.869,104.605C36.483,104.929 34.048,105.314 31.556,105.742C29.06,106.175 26.65,106.614 24.326,107.042C21.992,107.477 19.798,107.854 17.739,108.178C15.678,108.508 13.947,108.833 12.539,109.156L10.103,109.648L9.941,109.648ZM555.421,98.754C555.092,97.888 554.82,97.125 554.604,96.478C554.387,95.827 554.011,94.581 553.464,92.742C552.925,90.683 552.658,88.705 552.658,86.806C552.658,84.908 552.757,83.202 552.983,81.684C553.192,79.949 553.464,78.383 553.792,76.975C554.663,74.048 555.797,71.425 557.211,69.086C558.612,66.76 559.973,64.784 561.277,63.152C562.788,61.209 564.354,59.53 565.989,58.114C567.503,56.924 569.664,55.709 572.486,54.463C575.301,53.216 578.5,52.916 582.077,53.569C583.696,53.894 585.328,54.492 586.95,55.352C588.361,56.113 589.8,57.174 591.258,58.528C592.722,59.88 593.989,61.695 595.075,63.971C595.734,65.055 596.402,66.405 597.111,68.033C597.814,69.656 598.303,71.587 598.573,73.803C598.842,76.024 598.842,78.518 598.573,81.28C598.303,84.046 597.516,87.05 596.216,90.303C594.806,93.772 593.236,96.64 591.501,98.916C589.769,101.189 588.009,103.009 586.216,104.363C584.437,105.717 582.699,106.747 581.017,107.452C579.336,108.159 577.849,108.727 576.545,109.155C575.03,109.698 573.3,109.857 571.345,109.648C569.398,109.426 567.503,108.91 565.658,108.103C563.812,107.286 562.085,106.287 560.46,105.091C558.834,103.903 557.53,102.549 556.556,101.029C556.338,100.813 556.174,100.542 556.066,100.218C555.963,99.891 555.797,99.621 555.575,99.403C555.575,99.188 555.55,99.055 555.496,98.997C555.444,98.943 555.421,98.866 555.421,98.754ZM461.306,75.996C460.335,67.331 460.823,59.091 462.767,51.289C463.638,47.934 464.855,44.519 466.429,41.051C467.999,37.586 470.111,34.248 472.767,31.055C475.421,27.86 478.672,24.855 482.521,22.031C486.367,19.216 490.997,16.835 496.417,14.882C502.054,12.823 507.683,11.579 513.323,11.142C515.708,10.928 518.171,10.87 520.715,10.982C523.263,11.09 525.842,11.442 528.438,12.035C531.036,12.635 533.56,13.53 535.996,14.718C538.438,15.915 540.736,17.538 542.904,19.597C543.877,20.679 544.855,21.982 545.836,23.497C546.699,24.799 547.513,26.419 548.27,28.376C549.027,30.319 549.624,32.601 550.055,35.199C550.163,35.743 550.244,36.251 550.298,36.742C550.35,37.233 550.437,37.744 550.541,38.285C550.653,39.261 550.68,40.727 550.626,42.674C550.566,44.625 550.163,46.736 549.409,49.019C548.648,51.289 547.397,53.568 545.668,55.844C543.935,58.113 541.385,60.016 538.032,61.53C540.63,63.051 542.85,64.839 544.694,66.893C546.209,68.741 547.426,70.959 548.345,73.559C549.27,76.161 549.241,79.191 548.27,82.662C547.513,85.695 546.4,88.378 544.934,90.706C543.477,93.039 541.982,95.073 540.468,96.806C538.621,98.753 536.73,100.489 534.779,102.006C531.308,104.501 527.843,106.313 524.379,107.451C520.906,108.587 517.547,109.267 514.296,109.481C511.049,109.697 508.011,109.591 505.197,109.156C502.376,108.726 499.887,108.073 497.713,107.206C496.195,108.073 494.495,108.726 492.599,109.156C490.702,109.591 488.554,109.697 486.182,109.481C483.356,109.156 480.868,108.451 478.702,107.37C476.533,106.288 474.584,104.928 472.842,103.302C471.113,101.681 469.653,99.891 468.457,97.943C467.267,95.989 466.244,93.984 465.368,91.925C463.421,87.159 462.063,81.849 461.306,75.996ZM648.552,94.527C649.305,94.964 650.018,95.557 650.661,96.316C651.747,97.397 652.796,98.209 653.837,98.753C654.867,99.302 655.811,99.648 656.678,99.81C657.544,99.972 658.251,100.049 658.788,100.049C659.334,100.049 659.709,100.003 659.926,99.891C660.036,99.785 660.551,99.588 661.471,99.325C662.4,99.055 663.288,98.238 664.15,96.884C665.017,95.528 665.645,93.445 666.02,90.627C666.402,87.815 666.159,83.855 665.297,78.763C665.079,78.979 664.911,79.088 664.803,79.088L664.641,79.246C661.822,82.499 659.056,85.398 656.352,87.948C653.65,90.49 651.046,92.686 648.552,94.527ZM565.989,85.265C565.658,88.298 566.116,91.112 567.364,93.718C568.612,96.316 570.155,97.67 571.996,97.782C573.4,97.782 574.814,97.291 576.222,96.316C577.41,95.45 578.714,94.123 580.12,92.335C581.528,90.542 582.832,87.859 584.024,84.284C585.328,80.604 585.625,77.272 584.924,74.292C584.215,71.309 583.265,69.065 582.077,67.544C581.751,67.114 581.074,66.596 580.039,66.003C579.015,65.404 577.686,65.649 576.058,66.729C575.301,67.276 574.41,68.008 573.379,68.924C572.347,69.851 571.316,71.043 570.29,72.501C569.257,73.965 568.341,75.754 567.536,77.869C566.715,79.982 566.199,82.445 565.989,85.265ZM319.573,87.7C319.254,88.57 319.032,89.489 318.924,90.467C318.706,91.33 318.625,92.199 318.677,93.063C318.731,93.936 318.924,94.797 319.254,95.665C319.469,96.315 319.952,96.752 320.715,96.966C321.47,97.183 322.283,97.291 323.15,97.291C324.018,97.291 324.912,97.158 325.828,96.883C326.753,96.617 327.539,96.315 328.188,95.989C329.057,95.556 330.28,94.77 331.847,93.632C333.415,92.495 334.902,91.168 336.316,89.651C336.535,88.351 336.832,86.862 337.213,85.182C337.591,83.501 337.943,81.792 338.265,80.063C338.594,78.326 338.924,76.727 339.247,75.267C339.565,73.804 339.832,72.744 340.056,72.097C338.866,72.315 337.344,72.667 335.507,73.153C333.658,73.642 331.765,74.453 329.815,75.587C327.866,76.727 325.969,78.27 324.13,80.227C322.283,82.178 320.761,84.672 319.573,87.7ZM525.676,29.348C523.833,28.699 521.664,28.214 519.178,27.884C517.001,27.665 514.457,27.665 511.532,27.884C508.608,28.1 505.309,28.805 501.617,30.001C496.195,31.843 491.542,34.66 487.64,38.451C485.905,40.072 484.279,42 482.769,44.221C481.246,46.441 479.917,49.048 478.787,52.023C477.646,55.004 476.837,58.361 476.344,62.1C475.857,65.84 475.828,70.039 476.267,74.696C476.694,79.245 477.426,82.879 478.457,85.587C479.481,88.299 480.595,90.36 481.791,91.76C483.087,93.499 484.499,94.635 486.014,95.177C487.86,95.718 489.371,95.233 490.563,93.717C491.754,92.199 492.624,90.466 493.17,88.515C493.815,86.238 494.306,83.532 494.629,80.385C494.843,78.222 495.063,75.836 495.28,73.236C495.49,70.628 495.768,67.602 496.089,64.13C496.307,61.637 496.526,58.903 496.744,55.925C496.96,52.944 497.124,50.696 497.231,49.178C497.231,48.531 497.285,47.661 497.391,46.574C497.499,45.496 497.634,44.358 497.797,43.161C497.965,41.973 498.233,40.756 498.61,39.508C498.992,38.262 499.504,37.209 500.157,36.34C500.804,35.471 501.617,34.851 502.595,34.47C503.57,34.09 504.542,33.848 505.523,33.736C506.495,33.632 507.385,33.684 508.202,33.901C509.019,34.113 509.589,34.385 509.908,34.712C510.559,35.253 511.152,35.848 511.702,36.501C512.129,37.045 512.531,37.799 512.913,38.776C513.294,39.75 513.431,40.889 513.323,42.189L513.323,44.14C513.323,44.681 513.186,46.309 512.913,49.019C512.643,51.726 512.4,54.816 512.185,58.28C516.628,58.28 520.23,57.71 522.995,56.57C525.759,55.434 527.895,54.053 529.411,52.429C530.926,50.802 531.988,49.048 532.583,47.146C533.174,45.251 533.475,43.489 533.475,41.865C533.475,40.236 533.261,38.343 532.826,36.172C532.608,35.743 532.419,35.338 532.251,34.957C532.089,34.577 531.793,34.113 531.362,33.572C530.062,31.948 528.173,30.541 525.676,29.348ZM104.534,94.528C105.51,94.42 106.647,93.661 107.951,92.251C109.139,91.066 110.58,89.139 112.255,86.483C113.932,83.825 115.968,79.902 118.353,74.696C112.713,75.241 108.409,76.187 105.431,77.539C102.442,78.897 100.254,80.282 98.846,81.685C97.223,83.307 96.3,85.102 96.083,87.051C96.083,88.895 96.354,90.412 96.893,91.603C97.439,92.685 98.255,93.583 99.336,94.285C100.41,94.988 102.151,95.073 104.534,94.528ZM529.9,81.366C530.653,79.626 530.632,78.084 529.819,76.727C529.01,75.376 527.81,74.266 526.245,73.398C524.669,72.531 522.911,71.851 520.959,71.368C519.01,70.88 517.331,70.58 515.929,70.472C514.727,70.366 513.806,70.341 513.153,70.389C512.514,70.447 511.863,70.418 511.212,70.31C510.988,72.583 510.825,74.534 510.723,76.161C510.617,77.787 510.509,78.817 510.402,79.245C510.072,81.745 509.742,83.854 509.419,85.587C509.098,87.321 508.496,89.595 507.636,92.417C510.236,92.96 512.481,93.118 514.376,92.902C516.278,92.686 517.874,92.363 519.178,91.925C520.692,91.496 521.992,90.843 523.072,89.981C523.615,89.651 524.266,89.11 525.025,88.353C525.778,87.59 526.433,86.943 526.978,86.4C527.194,86.184 527.323,86.02 527.381,85.913C527.435,85.809 527.516,85.695 527.628,85.587C527.731,85.587 527.789,85.531 527.789,85.428C528.867,84.016 529.579,82.662 529.9,81.366ZM141.106,61.209C144.467,61.314 147.577,61.428 150.455,61.53C153.325,61.638 155.84,61.804 158.011,62.019C156.816,57.252 155.74,52.268 154.758,47.064C153.785,41.864 153.026,36.34 152.489,30.483C151.507,33.307 150.426,36.39 149.236,39.751C148.148,42.571 146.931,45.82 145.575,49.506C144.219,53.185 142.736,57.085 141.106,61.209ZM533.798,38.776L533.317,37.476C533.528,37.907 533.69,38.343 533.798,38.776ZM220.919,35.2C218.095,34.114 216.15,32.169 215.066,29.349C213.98,26.534 214.031,23.608 215.226,20.571C216.414,17.537 218.338,15.317 220.994,13.905C223.652,12.501 226.383,12.283 229.205,13.258C231.912,14.344 233.81,16.287 234.89,19.109C235.98,21.927 235.928,24.906 234.73,28.045C233.538,31.083 231.616,33.307 228.958,34.713C226.308,36.121 223.627,36.287 220.919,35.2ZM626.61,35.2C623.796,34.114 621.841,32.169 620.759,29.349C619.674,26.534 619.728,23.608 620.925,20.571C622.109,17.537 624.039,15.317 626.689,13.905C629.345,12.501 632.079,12.283 634.897,13.258C637.607,14.344 639.506,16.287 640.589,19.109C641.671,21.927 641.619,24.906 640.423,28.045C639.235,31.083 637.309,33.307 634.655,34.713C631.999,36.121 629.316,36.287 626.61,35.2ZM65.66,28.861L65.647,28.851C63.807,27.17 63.55,25.156 64.898,22.793C65.906,20.949 66.544,19.224 66.787,17.624C67.044,16.021 67.166,15.055 67.166,14.717L67.166,11.565C67.166,9.799 67.581,7.736 68.435,5.386C68.767,4.205 69.316,3.238 70.069,2.482C70.826,1.721 71.62,1.18 72.468,0.841C73.306,0.334 74.235,0.079 75.246,0.079C78.775,-0.253 81.425,0.456 83.194,2.224C84.964,3.993 85.675,5.973 85.342,8.152C84.998,9.336 84.456,10.721 83.702,12.318C82.941,13.918 82.059,15.565 81.052,17.242C80.042,18.93 78.906,20.564 77.637,22.166C76.38,23.765 75.246,25.069 74.235,26.073C73.149,27.27 72.081,28.15 71.031,28.713C70.238,29.412 69.457,29.84 68.693,30C67.664,30.215 66.88,30.111 66.335,29.672C66.052,29.414 65.827,29.144 65.66,28.861Z"/>
    </g>
</svg>
